<?xml version="1.0" encoding="UTF-8" standalone="no"?>
<!DOCTYPE svg PUBLIC "-//W3C//DTD SVG 1.1//EN"
 "http://www.w3.org/Graphics/SVG/1.1/DTD/svg11.dtd">
<!-- Generated by graphviz version 2.46.0 (0)
 -->
<!-- Title: G Pages: 1 -->
<svg width="146pt" height="116pt"
 viewBox="0.00 0.00 146.44 116.00" xmlns="http://www.w3.org/2000/svg" xmlns:xlink="http://www.w3.org/1999/xlink">
<g id="graph0" class="graph" transform="scale(1 1) rotate(0) translate(4 112)">
<title>G</title>
<polygon fill="white" stroke="transparent" points="-4,4 -4,-112 142.44,-112 142.44,4 -4,4"/>
<!-- test34 -->
<g id="node1" class="node">
<title>test34</title>
<ellipse fill="none" stroke="black" cx="68.25" cy="-18" rx="31.7" ry="18"/>
<text text-anchor="middle" x="68.25" y="-14.3" font-family="Times,serif" font-size="14.00">test34</text>
</g>
<!-- Juani -->
<g id="node2" class="node">
<title>Juani</title>
<ellipse fill="none" stroke="black" cx="29.25" cy="-90" rx="29.5" ry="18"/>
<text text-anchor="middle" x="29.25" y="-86.3" font-family="Times,serif" font-size="14.00">Juani</text>
</g>
<!-- Juani&#45;&gt;test34 -->
<g id="edge1" class="edge">
<title>Juani&#45;&gt;test34</title>
<path fill="none" stroke="black" d="M38.29,-72.76C42.95,-64.4 48.74,-54.02 53.98,-44.61"/>
<polygon fill="black" stroke="black" points="57.17,-46.07 58.98,-35.63 51.06,-42.67 57.17,-46.07"/>
</g>
<!-- Pedro -->
<g id="node3" class="node">
<title>Pedro</title>
<ellipse fill="none" stroke="black" cx="107.25" cy="-90" rx="31.4" ry="18"/>
<text text-anchor="middle" x="107.25" y="-86.3" font-family="Times,serif" font-size="14.00">Pedro</text>
</g>
<!-- Pedro&#45;&gt;test34 -->
<g id="edge2" class="edge">
<title>Pedro&#45;&gt;test34</title>
<path fill="none" stroke="black" d="M98.2,-72.76C93.54,-64.4 87.76,-54.02 82.51,-44.61"/>
<polygon fill="black" stroke="black" points="85.44,-42.67 77.51,-35.63 79.32,-46.07 85.44,-42.67"/>
</g>
</g>
</svg>
